<svg width="26" height="26" viewBox="0 0 26 26" fill="none" xmlns="http://www.w3.org/2000/svg">
<path fill-rule="evenodd" clip-rule="evenodd" d="M20.4746 21.3134C19.8676 20.9883 19.2733 20.6992 18.6917 20.4461C18.0029 21.7158 17.091 22.8325 15.9569 23.7938C17.6589 23.3229 19.1988 22.4621 20.4746 21.3134ZM21.2181 20.5792C22.7385 18.9322 23.773 16.8299 24.0941 14.5H20.2589C20.1612 16.3697 19.7849 18.053 19.1312 19.5469C19.8124 19.8449 20.508 20.1891 21.2181 20.5792ZM14 18.1489C15.3322 18.2633 16.7342 18.6031 18.2062 19.167C18.8118 17.7918 19.1619 16.2372 19.2576 14.5H14V18.1489ZM14 19.1529V23.9988C15.6317 22.9479 16.8841 21.6392 17.7592 20.0669C16.4369 19.5679 15.1837 19.2636 14 19.1529ZM5.88637 21.7067C7.208 22.7742 8.77621 23.5485 10.4922 23.9309C9.32911 22.9781 8.39115 21.8678 7.67915 20.6023C7.08992 20.9197 6.49232 21.2878 5.88637 21.7067ZM5.11654 21.0249C5.82774 20.522 6.53105 20.0838 7.22645 19.7104C6.52764 18.1763 6.12694 16.4383 6.02568 14.5H1.80583C2.1566 17.0457 3.35912 19.3196 5.11654 21.0249ZM12.5 18.1182V14.5H7.027C7.12494 16.278 7.48938 17.8648 8.12159 19.2637C9.61842 18.5738 11.0779 18.1911 12.5 18.1182ZM12.5 19.1197C11.2372 19.1919 9.929 19.5363 8.5754 20.1556C9.48666 21.7565 10.7941 23.0808 12.5 24.1346V19.1197ZM21.2001 5.3018C19.6533 3.63407 17.6071 2.43614 15.2992 1.94585C16.8603 3.33695 18.0559 4.92837 18.8844 6.71673C19.6292 6.31374 20.4011 5.84218 21.2001 5.3018ZM21.8506 6.06889C20.9634 6.673 20.1046 7.19772 19.274 7.64275C19.8942 9.27687 20.2294 11.0634 20.2783 13H24.1999C24.1999 12.9834 24.2 12.9668 24.2 12.9502C24.2 10.3583 23.3234 7.97111 21.8506 6.06889ZM14 9.44352V13H19.278C19.2308 11.2266 18.9307 9.59323 18.3767 8.0977C16.8138 8.84403 15.3554 9.29337 14 9.44352ZM14 8.43667C15.2217 8.28578 16.5533 7.86506 17.9934 7.17246C17.1136 5.25856 15.7832 3.58819 14 2.15631V8.43667ZM4.91293 5.07816C5.76314 5.72451 6.58849 6.27875 7.3888 6.74133C8.23614 4.90308 9.47056 3.27248 11.0903 1.85318C8.68855 2.25269 6.54408 3.41304 4.91293 5.07816ZM4.24339 5.82518C2.65381 7.7653 1.69995 10.2464 1.69995 12.9502C1.69995 12.9668 1.69999 12.9834 1.70006 13H6.00628C6.05494 11.0746 6.38653 9.29748 6.99993 7.67103C6.10529 7.16157 5.18651 6.5461 4.24339 5.82518ZM12.5 9.48551C11.0441 9.4017 9.50779 8.95433 7.88985 8.1468C7.34735 9.62896 7.05327 11.246 7.0066 13H12.5V9.48551ZM12.5 8.48361V1.98623C10.5935 3.46679 9.18441 5.20904 8.27 7.21876C9.77323 7.97755 11.1836 8.39806 12.5 8.48361ZM13 26C5.8203 26 0 20.1797 0 13C0 5.8203 5.8203 0 13 0C20.1797 0 26 5.8203 26 13C26 20.1797 20.1797 26 13 26Z" fill="white"/>
</svg>
